<svg id="Layer_1" data-name="Layer 1" xmlns="http://www.w3.org/2000/svg" viewBox="0 0 114.39 140.76"><defs><style>.cls-1,.cls-2{fill:#29abe2;stroke:#29abe2;}.cls-1,.cls-2,.cls-3,.cls-4,.cls-5,.cls-6,.cls-7,.cls-8,.cls-9{stroke-miterlimit:10;}.cls-1{stroke-width:2.69px;}.cls-2{stroke-width:2.75px;}.cls-3,.cls-4,.cls-5,.cls-6,.cls-7,.cls-8,.cls-9{fill:none;stroke:#000;}.cls-3{stroke-width:3.43px;}.cls-4{stroke-width:3.41px;}.cls-5{stroke-width:3.2px;}.cls-6{stroke-width:4.67px;}.cls-7{stroke-width:3.69px;}.cls-8{stroke-width:4.18px;}.cls-9{stroke-width:4.43px;}</style></defs><path class="cls-1" d="M83.48,62.23a22.39,22.39,0,0,1,8.46-4,23.14,23.14,0,0,1,23,7.91,21.5,21.5,0,0,1,4.14,8.91A23,23,0,0,1,99.67,79,22.61,22.61,0,0,1,83.48,62.23Z" transform="translate(-74.02 -4.23)"/><path class="cls-2" d="M186.79,58a23,23,0,0,1-5.92,7.49,23.31,23.31,0,0,1-24.53,3.08,21.84,21.84,0,0,1-7.76-6.35,23.32,23.32,0,0,1,7-8.3A22.72,22.72,0,0,1,186.79,58Z" transform="translate(-74.02 -4.23)"/><path class="cls-2" d="M135.26,7.25a23.16,23.16,0,0,1,7,31.46,22,22,0,0,1-7.21,7,23.39,23.39,0,0,1-7.44-7.89,23.08,23.08,0,0,1-3-9.38,22.79,22.79,0,0,1,2.51-12.36A23.11,23.11,0,0,1,135.26,7.25Z" transform="translate(-74.02 -4.23)"/><path class="cls-3" d="M105.51,99.47a33.42,33.42,0,0,0,46.91,0" transform="translate(-74.02 -4.23)"/><path class="cls-3" d="M100.25,70.41a29.16,29.16,0,0,1,17.62,6.18,29,29,0,0,1,7.89,9.49c2.36,4.61,2.7,8.67,3.09,12.93a50.1,50.1,0,0,1,0,9.16" transform="translate(-74.02 -4.23)"/><path class="cls-4" d="M157.68,58.28a33.39,33.39,0,0,0-6,.46A24.93,24.93,0,0,0,138,66.06a32.32,32.32,0,0,0-4.8,6,26.92,26.92,0,0,0-2.75,5.49c-.92,2.6-1.07,4.91-1.37,9.39-.16,2.36-.21,4.33-.23,5.72" transform="translate(-74.02 -4.23)"/><path class="cls-3" d="M181.71,57.59a25.14,25.14,0,0,1-5,7.33,24.7,24.7,0,0,1-10.07,6.18,24.19,24.19,0,0,1-15.56-.69A24.77,24.77,0,0,1,141,63.09a22.66,22.66,0,0,1,7.55-10.53A23,23,0,0,1,163.18,48a23.78,23.78,0,0,1,10.07,2.52A24.1,24.1,0,0,1,181.71,57.59Z" transform="translate(-74.02 -4.23)"/><path class="cls-5" d="M75.76,61.71a24.23,24.23,0,0,0,4.35,10.07,23.25,23.25,0,0,0,24.25,8.93,25.33,25.33,0,0,0,10.76-5.27,27,27,0,0,0-6-11,24.46,24.46,0,0,0-12.59-7.78,23.66,23.66,0,0,0-20.82,5Z" transform="translate(-74.02 -4.23)"/><path class="cls-5" d="M128.85,6.1a24.87,24.87,0,0,1,7.67,7,24.23,24.23,0,0,1,4.35,11,23.2,23.2,0,0,1-2.18,12.7,23.81,23.81,0,0,1-9.95,10.41,24.8,24.8,0,0,1-8.36-8.58,24.12,24.12,0,0,1-3.31-11.79,23.52,23.52,0,0,1,4-12.92A26,26,0,0,1,128.85,6.1Z" transform="translate(-74.02 -4.23)"/><path class="cls-3" d="M129,33.91v76.2" transform="translate(-74.02 -4.23)"/><line class="cls-6" x1="11.27" y1="119.36" x2="11.27" y2="139.77"/><line class="cls-7" x1="9.05" y1="129.57" x2="23.56" y2="129.57"/><line class="cls-7" x1="8.93" y1="137.93" x2="24.67" y2="137.93"/><line class="cls-7" x1="9.05" y1="121.21" x2="24.67" y2="121.21"/><path class="cls-8" d="M137.18,139.7a9.94,9.94,0,0,1-6.64,3,8.94,8.94,0,0,1-5.66-1.72,9.07,9.07,0,0,1-3.44-6.64,9.17,9.17,0,0,1,3.69-7.38,9.08,9.08,0,0,1,8.6-1,9.18,9.18,0,0,1,3.45,2.46" transform="translate(-74.02 -4.23)"/><path class="cls-9" d="M169.27,125.31a8.73,8.73,0,1,1-9,8A8.94,8.94,0,0,1,169.27,125.31Z" transform="translate(-74.02 -4.23)"/></svg>