<svg id="Layer_1" data-name="Layer 1" xmlns="http://www.w3.org/2000/svg" viewBox="0 0 227.12 106.58"><defs><style>.cls-1,.cls-2{fill:#29abe2;stroke:#29abe2;}.cls-1,.cls-2,.cls-3,.cls-4,.cls-5,.cls-6,.cls-7,.cls-8,.cls-9{stroke-miterlimit:10;}.cls-1{stroke-width:2.69px;}.cls-2{stroke-width:2.75px;}.cls-3,.cls-4,.cls-5,.cls-6,.cls-7,.cls-8,.cls-9{fill:none;stroke:#000;}.cls-3{stroke-width:3.43px;}.cls-4{stroke-width:3.41px;}.cls-5{stroke-width:3.2px;}.cls-6{stroke-width:4.67px;}.cls-7{stroke-width:3.69px;}.cls-8{stroke-width:4.18px;}.cls-9{stroke-width:4.43px;}</style></defs><path class="cls-1" d="M18.48,68.23a22.39,22.39,0,0,1,8.46-4,23.14,23.14,0,0,1,23,7.91,21.5,21.5,0,0,1,4.14,8.91A23,23,0,0,1,34.67,85,22.61,22.61,0,0,1,18.48,68.23Z" transform="translate(-9.02 -10.23)"/><path class="cls-2" d="M121.79,64a23,23,0,0,1-5.92,7.49,23.31,23.31,0,0,1-24.53,3.08,21.84,21.84,0,0,1-7.76-6.35,23.32,23.32,0,0,1,7-8.3A22.72,22.72,0,0,1,121.79,64Z" transform="translate(-9.02 -10.23)"/><path class="cls-2" d="M70.26,13.25a23.16,23.16,0,0,1,7,31.46,22,22,0,0,1-7.21,7,23.39,23.39,0,0,1-7.44-7.89,23.08,23.08,0,0,1-3-9.38,22.79,22.79,0,0,1,2.51-12.36A23.11,23.11,0,0,1,70.26,13.25Z" transform="translate(-9.02 -10.23)"/><path class="cls-3" d="M40.51,105.47a33.42,33.42,0,0,0,46.91,0" transform="translate(-9.02 -10.23)"/><path class="cls-3" d="M35.25,76.41a29.16,29.16,0,0,1,17.62,6.18,29,29,0,0,1,7.89,9.49c2.36,4.61,2.7,8.67,3.09,12.93a50.1,50.1,0,0,1,0,9.16" transform="translate(-9.02 -10.23)"/><path class="cls-4" d="M92.68,64.28a33.39,33.39,0,0,0-6,.46A24.93,24.93,0,0,0,73,72.06a32.32,32.32,0,0,0-4.8,6,26.92,26.92,0,0,0-2.75,5.49c-.92,2.6-1.07,4.91-1.37,9.39-.16,2.36-.21,4.33-.23,5.72" transform="translate(-9.02 -10.23)"/><path class="cls-3" d="M116.71,63.59a25.14,25.14,0,0,1-5,7.33,24.7,24.7,0,0,1-10.07,6.18,24.19,24.19,0,0,1-15.56-.69A24.77,24.77,0,0,1,76,69.09a22.66,22.66,0,0,1,7.55-10.53A23,23,0,0,1,98.18,54a23.78,23.78,0,0,1,10.07,2.52A24.1,24.1,0,0,1,116.71,63.59Z" transform="translate(-9.02 -10.23)"/><path class="cls-5" d="M10.76,67.71a24.23,24.23,0,0,0,4.35,10.07,23.25,23.25,0,0,0,24.25,8.93,25.33,25.33,0,0,0,10.76-5.27,27,27,0,0,0-5.95-11,24.46,24.46,0,0,0-12.59-7.78,23.66,23.66,0,0,0-20.82,5Z" transform="translate(-9.02 -10.23)"/><path class="cls-5" d="M63.85,12.1a24.87,24.87,0,0,1,7.67,7,24.23,24.23,0,0,1,4.35,11,23.2,23.2,0,0,1-2.18,12.7,23.81,23.81,0,0,1-9.95,10.41,24.8,24.8,0,0,1-8.36-8.58,24.12,24.12,0,0,1-3.31-11.79,23.52,23.52,0,0,1,4-12.92A26,26,0,0,1,63.85,12.1Z" transform="translate(-9.02 -10.23)"/><path class="cls-3" d="M64,39.91v76.2" transform="translate(-9.02 -10.23)"/><line class="cls-6" x1="132.07" y1="49.35" x2="132.07" y2="69.76"/><line class="cls-7" x1="129.86" y1="59.56" x2="144.36" y2="59.56"/><line class="cls-7" x1="129.73" y1="67.92" x2="145.47" y2="67.92"/><line class="cls-7" x1="129.86" y1="51.19" x2="145.47" y2="51.19"/><path class="cls-8" d="M193,75.68a9.89,9.89,0,0,1-6.64,2.95,8.81,8.81,0,0,1-5.66-1.72,8.79,8.79,0,0,1,8.86-15A9.21,9.21,0,0,1,193,64.37" transform="translate(-9.02 -10.23)"/><path class="cls-9" d="M225.07,61.3a8.73,8.73,0,1,1-9,8A9,9,0,0,1,225.07,61.3Z" transform="translate(-9.02 -10.23)"/></svg>