<svg id="Layer_1" data-name="Layer 1" xmlns="http://www.w3.org/2000/svg" viewBox="0 0 896.29 360.43"><defs><style>.cls-1,.cls-2{fill:#7dc241;stroke:#7dc241;}.cls-1,.cls-2,.cls-3,.cls-4,.cls-5,.cls-6,.cls-7,.cls-8,.cls-9{stroke-miterlimit:10;}.cls-1{stroke-width:9.1px;}.cls-2{stroke-width:9.29px;}.cls-3,.cls-4,.cls-5,.cls-6,.cls-7,.cls-8,.cls-9{fill:none;stroke:#000;}.cls-3{stroke-width:11.61px;}.cls-4{stroke-width:11.55px;}.cls-5{stroke-width:10.84px;}.cls-6{stroke-width:20.91px;}.cls-7{stroke-width:16.51px;}.cls-8{stroke-width:18.71px;}.cls-9{stroke-width:19.81px;}</style></defs><path class="cls-1" d="M275.6,617.32a76.27,76.27,0,0,1,28.62-13.47,78.36,78.36,0,0,1,77.87,26.75,72.73,72.73,0,0,1,14,30.15,77.57,77.57,0,0,1-65.7,13.15,76.5,76.5,0,0,1-54.78-56.58Z" transform="translate(-243.61 -421.15)"/><path class="cls-2" d="M625,603a78.32,78.32,0,0,1-103,35.77,74.53,74.53,0,0,1-26.27-21.49,79.5,79.5,0,0,1,23.61-28.07,78,78,0,0,1,30.36-13.67,76.93,76.93,0,0,1,42.49,3.62A78.11,78.11,0,0,1,625,603Z" transform="translate(-243.61 -421.15)"/><path class="cls-2" d="M450.72,431.37a78.31,78.31,0,0,1,23.61,106.42A74.46,74.46,0,0,1,450,561.39a79.28,79.28,0,0,1-25.15-26.7A77.82,77.82,0,0,1,414.73,503a77,77,0,0,1,8.52-41.79A78,78,0,0,1,450.72,431.37Z" transform="translate(-243.61 -421.15)"/><path class="cls-3" d="M350.11,743.26c5.69,5.59,33.81,32,78.17,32.51,45.84.47,75.07-27.19,80.49-32.51" transform="translate(-243.61 -421.15)"/><path class="cls-3" d="M332.31,645a98.5,98.5,0,0,1,86.29,53c8,15.59,9.14,29.31,10.45,43.73a170,170,0,0,1,0,30.95" transform="translate(-243.61 -421.15)"/><path class="cls-4" d="M526.57,604c-4.63.18-12.61-.05-20.12,1.54a90.6,90.6,0,0,0-26.32,9.29A89,89,0,0,0,460,630.27a108.89,108.89,0,0,0-16.25,20.12A90.77,90.77,0,0,0,434.47,669c-3.12,8.79-3.62,16.58-4.64,31.73-.55,8-.72,14.67-.78,19.35" transform="translate(-243.61 -421.15)"/><path class="cls-3" d="M607.83,601.63a84.94,84.94,0,0,1-17,24.77,83.42,83.42,0,0,1-34,20.9c-24.29,7.37-45,.63-52.63-2.33a83.52,83.52,0,0,1-34.05-24.76,76.79,76.79,0,0,1,25.54-35.6c20.68-15.84,42.95-15.64,49.53-15.48a80.78,80.78,0,0,1,62.69,32.5Z" transform="translate(-243.61 -421.15)"/><path class="cls-5" d="M249.5,615.57a82,82,0,0,0,14.7,34,81.06,81.06,0,0,0,33.28,26.31c22.38,9.33,42.2,5.3,48.76,3.87A85.84,85.84,0,0,0,382.62,662a91.33,91.33,0,0,0-20.13-37.15c-5.2-5.78-19-20.65-42.56-26.31a79.88,79.88,0,0,0-70.43,17Z" transform="translate(-243.61 -421.15)"/><path class="cls-5" d="M429.05,427.5A83.83,83.83,0,0,1,455,451.1a81.83,81.83,0,0,1,14.7,37.15,78.48,78.48,0,0,1-7.35,43,80.36,80.36,0,0,1-33.66,35.21,83.77,83.77,0,0,1-28.25-29,81.9,81.9,0,0,1-11.23-39.86c0-22.08,9.62-37.59,13.55-43.73A87.66,87.66,0,0,1,429.05,427.5Z" transform="translate(-243.61 -421.15)"/><path class="cls-3" d="M429.44,521.53V779.25" transform="translate(-243.61 -421.15)"/><line class="cls-6" x1="470.84" y1="155.85" x2="470.84" y2="247.22"/><line class="cls-7" x1="460.94" y1="201.54" x2="525.88" y2="201.54"/><line class="cls-7" x1="460.39" y1="238.96" x2="530.84" y2="238.96"/><line class="cls-7" x1="460.94" y1="164.11" x2="530.84" y2="164.11"/><path class="cls-8" d="M946.72,649.1c-2.4,2.44-13.07,12.75-29.72,13.21a39.86,39.86,0,0,1-25.32-7.71c-14.53-11-15.36-28.05-15.41-29.72-.64-20.26,15.1-32,16.51-33,12.29-8.84,27.34-8.87,38.53-4.4a40.73,40.73,0,0,1,15.41,11" transform="translate(-243.61 -421.15)"/><path class="cls-9" d="M1090.37,584.71c21.07.22,39.93,17.65,39.63,39.62-.3,21.65-19.07,38.41-39.63,38.53-22.58.13-42-19.83-40.18-42.38C1051.84,600.23,1070.11,584.49,1090.37,584.71Z" transform="translate(-243.61 -421.15)"/></svg>